<mxfile host="app.diagrams.net" agent="Mozilla/5.0 (Windows NT 10.0; Win64; x64) AppleWebKit/537.36 (KHTML, like Gecko) Chrome/129.0.0.0 Safari/537.36" version="24.7.16">
  <diagram name="第 1 页" id="1AGiYCTMJXV59xbFgtc6">
    <mxGraphModel dx="1624" dy="1566" grid="1" gridSize="10" guides="1" tooltips="1" connect="1" arrows="1" fold="1" page="1" pageScale="1" pageWidth="827" pageHeight="1169" math="0" shadow="0">
      <root>
        <mxCell id="0" />
        <mxCell id="1" parent="0" />
        <mxCell id="3sbQuhN3vdtOKN_i--KD-15" value="" style="edgeStyle=orthogonalEdgeStyle;rounded=0;orthogonalLoop=1;jettySize=auto;html=1;" edge="1" parent="1" source="3sbQuhN3vdtOKN_i--KD-7" target="3sbQuhN3vdtOKN_i--KD-14">
          <mxGeometry relative="1" as="geometry" />
        </mxCell>
        <mxCell id="3sbQuhN3vdtOKN_i--KD-7" value="&lt;span class=&quot;fontstyle0&quot;&gt;Yann LeCun&lt;/span&gt;&lt;div&gt;&lt;span class=&quot;fontstyle0&quot;&gt;1960~&lt;/span&gt;&lt;/div&gt;" style="rounded=0;whiteSpace=wrap;html=1;" vertex="1" parent="1">
          <mxGeometry x="190" y="30" width="120" height="60" as="geometry" />
        </mxCell>
        <mxCell id="3sbQuhN3vdtOKN_i--KD-21" style="edgeStyle=none;rounded=0;orthogonalLoop=1;jettySize=auto;html=1;entryX=1;entryY=0.5;entryDx=0;entryDy=0;" edge="1" parent="1" source="3sbQuhN3vdtOKN_i--KD-10" target="3sbQuhN3vdtOKN_i--KD-7">
          <mxGeometry relative="1" as="geometry" />
        </mxCell>
        <mxCell id="3sbQuhN3vdtOKN_i--KD-22" value="博士后" style="edgeLabel;html=1;align=center;verticalAlign=middle;resizable=0;points=[];" vertex="1" connectable="0" parent="3sbQuhN3vdtOKN_i--KD-21">
          <mxGeometry x="-0.1844" y="-1" relative="1" as="geometry">
            <mxPoint as="offset" />
          </mxGeometry>
        </mxCell>
        <mxCell id="3sbQuhN3vdtOKN_i--KD-30" value="" style="edgeStyle=none;rounded=0;orthogonalLoop=1;jettySize=auto;html=1;" edge="1" parent="1" source="3sbQuhN3vdtOKN_i--KD-10" target="3sbQuhN3vdtOKN_i--KD-29">
          <mxGeometry relative="1" as="geometry" />
        </mxCell>
        <mxCell id="3sbQuhN3vdtOKN_i--KD-31" value="" style="edgeStyle=none;rounded=0;orthogonalLoop=1;jettySize=auto;html=1;" edge="1" parent="1" source="3sbQuhN3vdtOKN_i--KD-10" target="3sbQuhN3vdtOKN_i--KD-29">
          <mxGeometry relative="1" as="geometry" />
        </mxCell>
        <mxCell id="3sbQuhN3vdtOKN_i--KD-57" value="PhD" style="edgeLabel;html=1;align=center;verticalAlign=middle;resizable=0;points=[];" vertex="1" connectable="0" parent="3sbQuhN3vdtOKN_i--KD-31">
          <mxGeometry x="-0.0867" y="-2" relative="1" as="geometry">
            <mxPoint as="offset" />
          </mxGeometry>
        </mxCell>
        <mxCell id="3sbQuhN3vdtOKN_i--KD-33" value="" style="edgeStyle=none;rounded=0;orthogonalLoop=1;jettySize=auto;html=1;" edge="1" parent="1" source="3sbQuhN3vdtOKN_i--KD-10" target="3sbQuhN3vdtOKN_i--KD-32">
          <mxGeometry relative="1" as="geometry" />
        </mxCell>
        <mxCell id="3sbQuhN3vdtOKN_i--KD-56" value="PhD" style="edgeLabel;html=1;align=center;verticalAlign=middle;resizable=0;points=[];" vertex="1" connectable="0" parent="3sbQuhN3vdtOKN_i--KD-33">
          <mxGeometry x="-0.0908" y="1" relative="1" as="geometry">
            <mxPoint as="offset" />
          </mxGeometry>
        </mxCell>
        <mxCell id="3sbQuhN3vdtOKN_i--KD-35" style="edgeStyle=none;rounded=0;orthogonalLoop=1;jettySize=auto;html=1;entryX=0.75;entryY=1;entryDx=0;entryDy=0;" edge="1" parent="1" source="3sbQuhN3vdtOKN_i--KD-10" target="3sbQuhN3vdtOKN_i--KD-14">
          <mxGeometry relative="1" as="geometry" />
        </mxCell>
        <mxCell id="3sbQuhN3vdtOKN_i--KD-10" value="&lt;span class=&quot;fontstyle0&quot;&gt;Geoffrey Hinton&lt;/span&gt;&lt;div&gt;&lt;span class=&quot;fontstyle0&quot;&gt;1947~&lt;/span&gt;&lt;/div&gt;" style="rounded=0;whiteSpace=wrap;html=1;" vertex="1" parent="1">
          <mxGeometry x="390" y="-10" width="120" height="60" as="geometry" />
        </mxCell>
        <mxCell id="3sbQuhN3vdtOKN_i--KD-16" style="edgeStyle=none;rounded=0;orthogonalLoop=1;jettySize=auto;html=1;entryX=0;entryY=0.5;entryDx=0;entryDy=0;startArrow=classic;startFill=1;" edge="1" parent="1" source="3sbQuhN3vdtOKN_i--KD-12" target="3sbQuhN3vdtOKN_i--KD-7">
          <mxGeometry relative="1" as="geometry" />
        </mxCell>
        <mxCell id="3sbQuhN3vdtOKN_i--KD-17" value="AT&amp;amp;T同事" style="edgeLabel;html=1;align=center;verticalAlign=middle;resizable=0;points=[];" vertex="1" connectable="0" parent="3sbQuhN3vdtOKN_i--KD-16">
          <mxGeometry x="0.0413" relative="1" as="geometry">
            <mxPoint as="offset" />
          </mxGeometry>
        </mxCell>
        <mxCell id="3sbQuhN3vdtOKN_i--KD-24" value="" style="edgeStyle=none;rounded=0;orthogonalLoop=1;jettySize=auto;html=1;startArrow=classic;startFill=1;endArrow=none;endFill=0;" edge="1" parent="1" source="3sbQuhN3vdtOKN_i--KD-12" target="3sbQuhN3vdtOKN_i--KD-23">
          <mxGeometry relative="1" as="geometry" />
        </mxCell>
        <mxCell id="3sbQuhN3vdtOKN_i--KD-25" value="博士后" style="edgeLabel;html=1;align=center;verticalAlign=middle;resizable=0;points=[];" vertex="1" connectable="0" parent="3sbQuhN3vdtOKN_i--KD-24">
          <mxGeometry x="-0.0373" y="4" relative="1" as="geometry">
            <mxPoint as="offset" />
          </mxGeometry>
        </mxCell>
        <mxCell id="3sbQuhN3vdtOKN_i--KD-34" style="edgeStyle=none;rounded=0;orthogonalLoop=1;jettySize=auto;html=1;entryX=0.25;entryY=1;entryDx=0;entryDy=0;" edge="1" parent="1" source="3sbQuhN3vdtOKN_i--KD-12" target="3sbQuhN3vdtOKN_i--KD-14">
          <mxGeometry relative="1" as="geometry" />
        </mxCell>
        <mxCell id="3sbQuhN3vdtOKN_i--KD-12" value="&lt;span class=&quot;fontstyle0&quot;&gt;Yoshua Bengio&lt;/span&gt; &lt;div&gt;1964~&lt;/div&gt;" style="rounded=0;whiteSpace=wrap;html=1;" vertex="1" parent="1">
          <mxGeometry x="-60" y="30" width="120" height="60" as="geometry" />
        </mxCell>
        <mxCell id="3sbQuhN3vdtOKN_i--KD-14" value="ACM图灵奖" style="rounded=0;whiteSpace=wrap;html=1;" vertex="1" parent="1">
          <mxGeometry x="190" y="-120" width="120" height="60" as="geometry" />
        </mxCell>
        <mxCell id="3sbQuhN3vdtOKN_i--KD-27" value="" style="edgeStyle=none;rounded=0;orthogonalLoop=1;jettySize=auto;html=1;" edge="1" parent="1" source="3sbQuhN3vdtOKN_i--KD-23" target="3sbQuhN3vdtOKN_i--KD-26">
          <mxGeometry relative="1" as="geometry" />
        </mxCell>
        <mxCell id="3sbQuhN3vdtOKN_i--KD-28" value="PhD" style="edgeLabel;html=1;align=center;verticalAlign=middle;resizable=0;points=[];" vertex="1" connectable="0" parent="3sbQuhN3vdtOKN_i--KD-27">
          <mxGeometry x="-0.125" relative="1" as="geometry">
            <mxPoint as="offset" />
          </mxGeometry>
        </mxCell>
        <mxCell id="3sbQuhN3vdtOKN_i--KD-23" value="Michel.I.Jordan&lt;br&gt;&lt;div&gt;1956, UC Berkeley&lt;/div&gt;" style="rounded=0;whiteSpace=wrap;html=1;" vertex="1" parent="1">
          <mxGeometry x="-300" y="-10" width="120" height="60" as="geometry" />
        </mxCell>
        <mxCell id="3sbQuhN3vdtOKN_i--KD-26" value="Andrew NG(吴恩达)&lt;div&gt;1976，Stanford，Coursera，Google Brain&lt;/div&gt;" style="rounded=0;whiteSpace=wrap;html=1;" vertex="1" parent="1">
          <mxGeometry x="-300" y="130" width="120" height="60" as="geometry" />
        </mxCell>
        <mxCell id="3sbQuhN3vdtOKN_i--KD-37" value="" style="edgeStyle=none;rounded=0;orthogonalLoop=1;jettySize=auto;html=1;" edge="1" parent="1" source="3sbQuhN3vdtOKN_i--KD-29" target="3sbQuhN3vdtOKN_i--KD-36">
          <mxGeometry relative="1" as="geometry" />
        </mxCell>
        <mxCell id="3sbQuhN3vdtOKN_i--KD-38" value="前联合创始人" style="edgeLabel;html=1;align=center;verticalAlign=middle;resizable=0;points=[];" vertex="1" connectable="0" parent="3sbQuhN3vdtOKN_i--KD-37">
          <mxGeometry relative="1" as="geometry">
            <mxPoint as="offset" />
          </mxGeometry>
        </mxCell>
        <mxCell id="3sbQuhN3vdtOKN_i--KD-29" value="&amp;nbsp;Ilya Sutskever&lt;div&gt;1986&amp;nbsp;&lt;/div&gt;" style="rounded=0;whiteSpace=wrap;html=1;" vertex="1" parent="1">
          <mxGeometry x="480" y="170" width="120" height="60" as="geometry" />
        </mxCell>
        <mxCell id="3sbQuhN3vdtOKN_i--KD-32" value="Alex Krizhevsky" style="rounded=0;whiteSpace=wrap;html=1;strokeColor=default;align=center;verticalAlign=middle;fillColor=default;" vertex="1" parent="1">
          <mxGeometry x="330" y="170" width="120" height="60" as="geometry" />
        </mxCell>
        <mxCell id="3sbQuhN3vdtOKN_i--KD-36" value="Open AI" style="rounded=1;whiteSpace=wrap;html=1;" vertex="1" parent="1">
          <mxGeometry x="707" y="30" width="120" height="60" as="geometry" />
        </mxCell>
        <mxCell id="3sbQuhN3vdtOKN_i--KD-41" style="edgeStyle=none;rounded=0;orthogonalLoop=1;jettySize=auto;html=1;entryX=1;entryY=1;entryDx=0;entryDy=0;" edge="1" parent="1" source="3sbQuhN3vdtOKN_i--KD-40" target="3sbQuhN3vdtOKN_i--KD-36">
          <mxGeometry relative="1" as="geometry" />
        </mxCell>
        <mxCell id="3sbQuhN3vdtOKN_i--KD-43" value="&lt;span style=&quot;color: rgba(0, 0, 0, 0); font-family: monospace; font-size: 0px; text-align: start; background-color: rgb(251, 251, 251);&quot;&gt;%3CmxGraphModel%3E%3Croot%3E%3CmxCell%20id%3D%220%22%2F%3E%3CmxCell%20id%3D%221%22%20parent%3D%220%22%2F%3E%3CmxCell%20id%3D%222%22%20value%3D%22%E8%81%94%E5%90%88%E5%88%9B%E5%A7%8B%E4%BA%BA%22%20style%3D%22edgeLabel%3Bhtml%3D1%3Balign%3Dcenter%3BverticalAlign%3Dmiddle%3Bresizable%3D0%3Bpoints%3D%5B%5D%3B%22%20vertex%3D%221%22%20connectable%3D%220%22%20parent%3D%221%22%3E%3CmxGeometry%20x%3D%22653.6604348783353%22%20y%3D%22164.95052668950007%22%20as%3D%22geometry%22%2F%3E%3C%2FmxCell%3E%3C%2Froot%3E%3C%2FmxGraphModel%3E&lt;/span&gt;" style="edgeLabel;html=1;align=center;verticalAlign=middle;resizable=0;points=[];" vertex="1" connectable="0" parent="3sbQuhN3vdtOKN_i--KD-41">
          <mxGeometry x="-0.0238" y="-1" relative="1" as="geometry">
            <mxPoint as="offset" />
          </mxGeometry>
        </mxCell>
        <mxCell id="3sbQuhN3vdtOKN_i--KD-44" value="前联合创始人" style="edgeLabel;html=1;align=center;verticalAlign=middle;resizable=0;points=[];" vertex="1" connectable="0" parent="3sbQuhN3vdtOKN_i--KD-41">
          <mxGeometry x="0.0993" y="1" relative="1" as="geometry">
            <mxPoint as="offset" />
          </mxGeometry>
        </mxCell>
        <mxCell id="3sbQuhN3vdtOKN_i--KD-40" value="Andrej Karpathy" style="rounded=0;whiteSpace=wrap;html=1;" vertex="1" parent="1">
          <mxGeometry x="880" y="180" width="120" height="60" as="geometry" />
        </mxCell>
        <mxCell id="3sbQuhN3vdtOKN_i--KD-46" style="edgeStyle=none;rounded=0;orthogonalLoop=1;jettySize=auto;html=1;entryX=1;entryY=0.5;entryDx=0;entryDy=0;" edge="1" parent="1" source="3sbQuhN3vdtOKN_i--KD-45" target="3sbQuhN3vdtOKN_i--KD-40">
          <mxGeometry relative="1" as="geometry" />
        </mxCell>
        <mxCell id="3sbQuhN3vdtOKN_i--KD-47" value="PhD" style="edgeLabel;html=1;align=center;verticalAlign=middle;resizable=0;points=[];" vertex="1" connectable="0" parent="3sbQuhN3vdtOKN_i--KD-46">
          <mxGeometry x="-0.145" y="-2" relative="1" as="geometry">
            <mxPoint as="offset" />
          </mxGeometry>
        </mxCell>
        <mxCell id="3sbQuhN3vdtOKN_i--KD-45" value="李飞飞&lt;div&gt;1976，Stanford&lt;/div&gt;" style="rounded=0;whiteSpace=wrap;html=1;" vertex="1" parent="1">
          <mxGeometry x="990" y="-40" width="120" height="60" as="geometry" />
        </mxCell>
        <mxCell id="3sbQuhN3vdtOKN_i--KD-48" value="" style="shape=image;verticalLabelPosition=bottom;labelBackgroundColor=default;verticalAlign=top;aspect=fixed;imageAspect=0;image=https://upload.wikimedia.org/wikipedia/en/thumb/0/04/Utoronto_coa.svg/800px-Utoronto_coa.svg.png;" vertex="1" parent="1">
          <mxGeometry x="510" y="-40" width="90" height="90" as="geometry" />
        </mxCell>
        <mxCell id="3sbQuhN3vdtOKN_i--KD-50" style="edgeStyle=none;rounded=0;orthogonalLoop=1;jettySize=auto;html=1;entryX=0.25;entryY=1;entryDx=0;entryDy=0;" edge="1" parent="1" source="3sbQuhN3vdtOKN_i--KD-49" target="3sbQuhN3vdtOKN_i--KD-36">
          <mxGeometry relative="1" as="geometry" />
        </mxCell>
        <mxCell id="3sbQuhN3vdtOKN_i--KD-51" value="前联合创始人" style="edgeLabel;html=1;align=center;verticalAlign=middle;resizable=0;points=[];" vertex="1" connectable="0" parent="3sbQuhN3vdtOKN_i--KD-50">
          <mxGeometry x="0.011" y="1" relative="1" as="geometry">
            <mxPoint as="offset" />
          </mxGeometry>
        </mxCell>
        <mxCell id="3sbQuhN3vdtOKN_i--KD-49" value="Elon Musk&lt;div&gt;1971，&lt;/div&gt;" style="rounded=0;whiteSpace=wrap;html=1;" vertex="1" parent="1">
          <mxGeometry x="650" y="170" width="120" height="60" as="geometry" />
        </mxCell>
        <mxCell id="3sbQuhN3vdtOKN_i--KD-52" value="Sam Altman&#xa;1971，YC总裁" style="rounded=0;whiteSpace=wrap;html=1;" vertex="1" parent="1">
          <mxGeometry x="760" y="260" width="120" height="60" as="geometry" />
        </mxCell>
        <mxCell id="3sbQuhN3vdtOKN_i--KD-53" style="edgeStyle=none;rounded=0;orthogonalLoop=1;jettySize=auto;html=1;entryX=0.75;entryY=1;entryDx=0;entryDy=0;" edge="1" parent="1" source="3sbQuhN3vdtOKN_i--KD-52" target="3sbQuhN3vdtOKN_i--KD-36">
          <mxGeometry relative="1" as="geometry" />
        </mxCell>
        <mxCell id="3sbQuhN3vdtOKN_i--KD-54" value="联合创始人" style="edgeLabel;html=1;align=center;verticalAlign=middle;resizable=0;points=[];" vertex="1" connectable="0" parent="3sbQuhN3vdtOKN_i--KD-53">
          <mxGeometry x="-0.0276" y="-2" relative="1" as="geometry">
            <mxPoint as="offset" />
          </mxGeometry>
        </mxCell>
        <mxCell id="3sbQuhN3vdtOKN_i--KD-55" value="Kaiming He&lt;div&gt;（何凯明）&lt;/div&gt;" style="rounded=0;whiteSpace=wrap;html=1;" vertex="1" parent="1">
          <mxGeometry x="50" y="260" width="120" height="60" as="geometry" />
        </mxCell>
      </root>
    </mxGraphModel>
  </diagram>
</mxfile>
